{
  "accessors": [
    {
      "bufferView": 2,
      "componentType": 5126,
      "count": 65532,
      "max": [
        13.606407165527344,
        16.860990524291992,
        6.272775650024414
      ],
      "min": [
        4.114365100860596,
        8.837263107299805,
        0.0
      ],
      "type": "VEC3"
    },
    {
      "bufferView": 2,
      "byteOffset": 786384,
      "componentType": 5126,
      "count": 65532,
      "max": [
        0.9999414682388306,
        0.9999948740005493,
        0.9998334646224976
      ],
      "min": [
        -0.9994686245918274,
        -0.9999483823776245,
        -0.9999966621398926
      ],
      "type": "VEC3"
    },
    {
      "bufferView": 1,
      "componentType": 5126,
      "count": 65532,
      "max": [
        0.9854879975318909,
        0.9927399754524231
      ],
      "min": [
        0.0074880002066493034,
        0.0637189969420433
      ],
      "type": "VEC2"
    },
    {
      "bufferView": 0,
      "componentType": 5125,
      "count": 370560,
      "type": "SCALAR"
    },
    {
      "bufferView": 2,
      "byteOffset": 1572768,
      "componentType": 5126,
      "count": 65532,
      "max": [
        13.415912628173828,
        16.543481826782227,
        11.603066444396973
      ],
      "min": [
        4.33355188369751,
        6.300674915313721,
        1.1894316673278809
      ],
      "type": "VEC3"
    },
    {
      "bufferView": 2,
      "byteOffset": 2359152,
      "componentType": 5126,
      "count": 65532,
      "max": [
        0.9999985098838806,
        0.9999302625656128,
        0.999997615814209
      ],
      "min": [
        -0.9999972581863403,
        -0.9999868869781494,
        -0.9729689955711365
      ],
      "type": "VEC3"
    },
    {
      "bufferView": 1,
      "byteOffset": 524256,
      "componentType": 5126,
      "count": 65532,
      "max": [
        0.9938070178031921,
        0.9990310072898865
      ],
      "min": [
        0.005640000104904175,
        0.004040000028908253
      ],
      "type": "VEC2"
    },
    {
      "bufferView": 0,
      "byteOffset": 1482240,
      "componentType": 5125,
      "count": 330897,
      "type": "SCALAR"
    },
    {
      "bufferView": 2,
      "byteOffset": 3145536,
      "componentType": 5126,
      "count": 65532,
      "max": [
        17.514652252197266,
        15.686553001403809,
        14.015621185302734
      ],
      "min": [
        0.36856842041015625,
        0.0037994384765625,
        2.147489547729492
      ],
      "type": "VEC3"
    },
    {
      "bufferView": 2,
      "byteOffset": 3931920,
      "componentType": 5126,
      "count": 65532,
      "max": [
        0.9999961256980896,
        0.9999575018882751,
        0.9726622104644775
      ],
      "min": [
        -0.9999872446060181,
        -0.8959574103355408,
        -0.9998700022697449
      ],
      "type": "VEC3"
    },
    {
      "bufferView": 1,
      "byteOffset": 1048512,
      "componentType": 5126,
      "count": 65532,
      "max": [
        0.9892849922180176,
        1.000412940979004
      ],
      "min": [
        0.003667999990284443,
        0.0035019998904317617
      ],
      "type": "VEC2"
    },
    {
      "bufferView": 0,
      "byteOffset": 2805828,
      "componentType": 5125,
      "count": 318843,
      "type": "SCALAR"
    },
    {
      "bufferView": 2,
      "byteOffset": 4718304,
      "componentType": 5126,
      "count": 65532,
      "max": [
        18.25216293334961,
        15.283841133117676,
        16.1802921295166
      ],
      "min": [
        0.0,
        0.0,
        5.130784511566162
      ],
      "type": "VEC3"
    },
    {
      "bufferView": 2,
      "byteOffset": 5504688,
      "componentType": 5126,
      "count": 65532,
      "max": [
        0.9999653697013855,
        0.9999745488166809,
        0.9945964813232422
      ],
      "min": [
        -0.9999189972877502,
        -0.9979569911956787,
        -0.9999374747276306
      ],
      "type": "VEC3"
    },
    {
      "bufferView": 1,
      "byteOffset": 1572768,
      "componentType": 5126,
      "count": 65532,
      "max": [
        0.9989619851112366,
        1.0002210140228271
      ],
      "min": [
        0.000299000006634742,
        0.001006999984383583
      ],
      "type": "VEC2"
    },
    {
      "bufferView": 0,
      "byteOffset": 4081200,
      "componentType": 5125,
      "count": 335277,
      "type": "SCALAR"
    },
    {
      "bufferView": 2,
      "byteOffset": 6291072,
      "componentType": 5126,
      "count": 18950,
      "max": [
        13.40001106262207,
        14.948415756225586,
        11.905878067016602
      ],
      "min": [
        4.676935195922852,
        5.05299711227417,
        3.25913667678833
      ],
      "type": "VEC3"
    },
    {
      "bufferView": 2,
      "byteOffset": 6518472,
      "componentType": 5126,
      "count": 18950,
      "max": [
        0.9999673366546631,
        0.9924145340919495,
        0.9241412281990051
      ],
      "min": [
        -0.9999746680259705,
        -0.9979569911956787,
        -0.9988246560096741
      ],
      "type": "VEC3"
    },
    {
      "bufferView": 1,
      "byteOffset": 2097024,
      "componentType": 5126,
      "count": 18950,
      "max": [
        0.993257999420166,
        0.9855650067329407
      ],
      "min": [
        0.023079000413417816,
        0.05794600024819374
      ],
      "type": "VEC2"
    },
    {
      "bufferView": 0,
      "byteOffset": 5422308,
      "componentType": 5125,
      "count": 71319,
      "type": "SCALAR"
    }
  ],
  "asset": {
    "extras": {
      "author": "RLA Archaeology (https://sketchfab.com/rla-archaeology)",
      "license": "CC-BY-NC-4.0 (http://creativecommons.org/licenses/by-nc/4.0/)",
      "source": "https://sketchfab.com/3d-models/unc-old-well-13f0b2efb35f4d13868e634a68b6465a",
      "title": "UNC Old Well"
    },
    "generator": "Sketchfab-12.67.0",
    "version": "2.0"
  },
  "bufferViews": [
    {
      "buffer": 0,
      "byteLength": 5707584,
      "name": "floatBufferViews",
      "target": 34963
    },
    {
      "buffer": 0,
      "byteLength": 2248624,
      "byteOffset": 5707584,
      "byteStride": 8,
      "name": "floatBufferViews",
      "target": 34962
    },
    {
      "buffer": 0,
      "byteLength": 6745872,
      "byteOffset": 7956208,
      "byteStride": 12,
      "name": "floatBufferViews",
      "target": 34962
    }
  ],
  "buffers": [
    {
      "byteLength": 14702080,
      "uri": "scene.bin"
    }
  ],
  "extensionsRequired": [
    "KHR_materials_pbrSpecularGlossiness"
  ],
  "extensionsUsed": [
    "KHR_materials_pbrSpecularGlossiness"
  ],
  "images": [
    {
      "uri": "textures/material_0_diffuse.jpeg"
    }
  ],
  "materials": [
    {
      "doubleSided": true,
      "extensions": {
        "KHR_materials_pbrSpecularGlossiness": {
          "diffuseFactor": [
            1.0,
            1.0,
            1.0,
            1.0
          ],
          "diffuseTexture": {
            "index": 0
          },
          "glossinessFactor": 0.4,
          "specularFactor": [
            0.0,
            0.0,
            0.0
          ]
        }
      },
      "name": "material_0"
    }
  ],
  "meshes": [
    {
      "name": "Object_0",
      "primitives": [
        {
          "attributes": {
            "NORMAL": 1,
            "POSITION": 0,
            "TEXCOORD_0": 2
          },
          "indices": 3,
          "material": 0,
          "mode": 4
        }
      ]
    },
    {
      "name": "Object_1",
      "primitives": [
        {
          "attributes": {
            "NORMAL": 5,
            "POSITION": 4,
            "TEXCOORD_0": 6
          },
          "indices": 7,
          "material": 0,
          "mode": 4
        }
      ]
    },
    {
      "name": "Object_2",
      "primitives": [
        {
          "attributes": {
            "NORMAL": 9,
            "POSITION": 8,
            "TEXCOORD_0": 10
          },
          "indices": 11,
          "material": 0,
          "mode": 4
        }
      ]
    },
    {
      "name": "Object_3",
      "primitives": [
        {
          "attributes": {
            "NORMAL": 13,
            "POSITION": 12,
            "TEXCOORD_0": 14
          },
          "indices": 15,
          "material": 0,
          "mode": 4
        }
      ]
    },
    {
      "name": "Object_4",
      "primitives": [
        {
          "attributes": {
            "NORMAL": 17,
            "POSITION": 16,
            "TEXCOORD_0": 18
          },
          "indices": 19,
          "material": 0,
          "mode": 4
        }
      ]
    }
  ],
  "nodes": [
    {
      "children": [
        1
      ],
      "matrix": [
        -0.00046765562728978693,
        -0.014041345566510932,
        -0.999901294708252,
        0.0,
        0.8338586688041687,
        0.5519179701805115,
        -0.00814043357968318,
        0.0,
        0.551977813243866,
        -0.8337801694869995,
        0.011450390331446939,
        0.0,
        3.799346923828125,
        1.035685181617736,
        4.085373878479004,
        1.0
      ],
      "name": "Sketchfab_model"
    },
    {
      "children": [
        2,
        3,
        4,
        5,
        6
      ],
      "matrix": [
        1.0,
        0.0,
        0.0,
        0.0,
        0.0,
        1.0,
        0.0,
        0.0,
        0.0,
        0.0,
        1.0,
        0.0,
        -8.899620056152344,
        -12.314144134521484,
        -8.69594955444336,
        1.0
      ],
      "name": "UNC Old Well.obj.cleaner.gles"
    },
    {
      "mesh": 0,
      "name": "Object_2"
    },
    {
      "mesh": 1,
      "name": "Object_3"
    },
    {
      "mesh": 2,
      "name": "Object_4"
    },
    {
      "mesh": 3,
      "name": "Object_5"
    },
    {
      "mesh": 4,
      "name": "Object_6"
    }
  ],
  "samplers": [
    {
      "magFilter": 9729,
      "minFilter": 9987,
      "wrapS": 10497,
      "wrapT": 10497
    }
  ],
  "scene": 0,
  "scenes": [
    {
      "name": "Sketchfab_Scene",
      "nodes": [
        0
      ]
    }
  ],
  "textures": [
    {
      "sampler": 0,
      "source": 0
    }
  ]
}
